<svg width="52" height="39" viewBox="0 0 52 39" fill="none" xmlns="http://www.w3.org/2000/svg">
<path d="M46.9122 12.412C41.8668 10.9422 37.6109 11.8423 34.8394 16.417C33.0203 19.4063 33.4064 23.5681 36.4096 26.4996C35.8261 27.2841 35.2427 28.085 34.6506 28.886C32.2052 26.9207 30.5748 22.5194 31.7675 18.531C33.1061 14.0553 36.8987 11.3303 40.923 10.9752C43.7975 10.7192 46.5175 11.4542 46.9122 12.412Z" fill="#043B56"/>
<path d="M52.0004 3.13101C51.8889 3.22184 51.8889 3.20533 51.7945 3.19707C51.5886 3.16404 51.4255 3.08972 51.2883 3.03191C48.5253 1.8263 45.5993 1.20698 42.5876 1.34736C35.0453 1.69418 29.2448 4.94769 25.4436 11.3143C23.7447 14.155 22.9467 17.2433 22.9724 20.472C23.0068 24.8651 24.2338 29.0435 27.1426 32.4869C27.9663 33.4613 28.8673 34.4853 29.9055 35.3028C29.2277 36.3597 28.7128 36.9543 27.8548 38.0773C25.967 35.0303 23.513 32.5695 22.2002 29.3903C20.8273 26.0625 20.321 22.6438 20.7329 19.0682C21.1791 15.1211 22.655 11.6033 25.1862 8.49847C28.4125 4.5348 32.5827 1.98319 37.731 0.959248C39.2755 0.653715 40.8286 0.439017 42.3988 0.488563C45.5307 0.595912 48.5511 1.22349 51.3655 2.60252C51.6143 2.72638 52.0004 3.00714 52.0004 3.13101Z" fill="#043B56"/>
<path d="M49.0314 9.38132C49.735 9.98413 48.5852 9.43913 48.5852 9.43913C46.4315 8.48124 44.1577 8.12616 41.8066 8.32434C39.3612 8.53079 37.1216 9.35655 35.1653 10.8016C32.8142 12.544 31.2525 14.8066 30.5575 17.5894C29.648 21.2228 30.3773 24.5423 32.6512 27.5646C33.1317 28.2005 33.7323 28.7372 34.3158 29.3731C33.6465 30.1906 33.1746 31.0411 32.4967 31.7513C27.4943 27.5646 25.7353 19.1584 30.7978 12.8C35.6801 6.67282 44.2435 6.14433 49.0314 9.38132Z" fill="#043B56"/>
<path d="M44.9221 15.0709C45.8231 15.938 44.5274 15.3517 44.2271 15.3187C42.8027 15.1618 41.4298 15.2361 40.1084 15.938C37.7145 17.2097 36.5132 20.4054 38.0491 22.9405C38.1864 23.1634 38.3408 23.3781 38.5125 23.6424C37.9633 24.3938 37.3884 25.17 36.7706 26.0123C34.4539 23.4194 34.2222 19.3567 36.9594 16.483C39.1131 14.2287 42.8113 13.7084 44.9221 15.0709Z" fill="#043B56"/>
<path d="M50.559 6.23604C51.3227 6.96271 50.2072 6.34339 50.027 6.26081C47.4271 5.12126 44.6899 4.6258 41.8412 4.82398C38.5205 5.0552 35.5002 6.14521 32.8745 8.11878C29.8971 10.3566 27.9064 13.2468 27.0483 16.7976C25.8642 21.7109 26.8939 26.1617 30.1802 30.1171C30.7894 30.8438 31.4845 31.4879 32.2481 32.1733C31.596 33.0403 31.0039 33.8331 30.4033 34.6341C23.7276 29.1923 21.6168 18.4821 28.0265 10.5878C34.2302 2.9495 44.647 2.51184 50.559 6.23604Z" fill="#043B56"/>
<path d="M14.1433 13.4784C15.6448 15.5841 17.1379 17.698 18.6566 19.7872C18.9655 20.2083 19.1286 20.6212 19.1028 21.158C19.0256 22.8178 19.2315 24.4528 19.5662 26.0795C19.5061 26.1043 19.4546 26.1373 19.3945 26.1621C13.268 17.5907 7.12436 9.01925 0.869141 0.282672C2.13906 0.282672 3.22879 0.299187 4.30994 0.274414" fill="#3BB75E"/>
<path d="M20.1321 8.21781C20.6984 9.01055 21.2562 9.79502 21.874 10.6621C21.2991 11.7025 20.8529 12.7843 20.338 14.0147C17.0603 9.41517 13.8512 4.91476 10.5391 0.282227C11.869 0.282227 13.036 0.282227 14.203 0.282227" fill="#3BB75E"/>
<path d="M24.2429 7.19334C23.1446 8.58888 22.9815 8.95221 22.3037 9.90184C20.0298 6.71439 17.7903 3.57649 15.4307 0.281695C16.7263 0.281695 17.8504 0.306468 18.9658 0.273438" fill="#3BB75E"/>
<path d="M24.3027 0.414062C24.8261 1.1077 25.238 1.58665 25.6842 2.20597C26.1733 2.89136 26.6624 3.585 27.1429 4.27038C26.2591 4.90622 25.5898 5.68244 24.7661 6.41737C23.3932 4.49334 21.9516 2.48673 20.4844 0.42232" fill="#3BB75E"/>
<path d="M16.3575 9.85246C17.4644 11.4049 18.5627 12.9738 19.6868 14.518C19.9356 14.8566 20.0214 15.1208 19.8927 15.542C19.5495 16.698 19.2835 17.8871 19.0432 19.1258C14.5985 12.8995 10.1538 6.66501 5.63184 0.331405C6.93608 0.215798 8.12878 0.290116 9.31289 0.290116" fill="#3BB75E"/>
</svg>
