<svg width="146" height="40" viewBox="0 0 146 40" fill="none" xmlns="http://www.w3.org/2000/svg">
<path d="M46.9429 12.9624C41.799 11.4139 37.4599 12.3621 34.6342 17.1817C32.7796 20.3309 33.1733 24.7155 36.2352 27.8039C35.6403 28.6304 35.0454 29.4742 34.4418 30.3181C31.9486 28.2476 30.2864 23.6107 31.5024 19.4088C32.8671 14.6936 36.7338 11.8228 40.8367 11.4487C43.7673 11.179 46.5405 11.9532 46.9429 12.9624Z" fill="white"/>
<path d="M52.1301 3.18394C52.0164 3.27964 52.0164 3.26224 51.9202 3.25354C51.7102 3.21874 51.544 3.14045 51.404 3.07955C48.5871 1.80941 45.604 1.15694 42.5334 1.30483C34.8437 1.67022 28.9299 5.09785 25.0545 11.8052C23.3224 14.7979 22.5088 18.0515 22.535 21.4531C22.57 26.0813 23.821 30.4832 26.7866 34.111C27.6265 35.1375 28.545 36.2163 29.6035 37.0775C28.9124 38.1911 28.3875 38.8175 27.5127 40.0006C25.5881 36.7905 23.0862 34.198 21.7477 30.8486C20.348 27.3427 19.8318 23.7411 20.2517 19.9741C20.7066 15.8157 22.2113 12.1097 24.792 8.83868C28.0814 4.66287 32.333 1.9747 37.5819 0.895953C39.1566 0.574068 40.74 0.347879 42.3409 0.400076C45.534 0.513171 48.6133 1.17434 51.4827 2.62717C51.7364 2.75766 52.1301 3.05345 52.1301 3.18394Z" fill="white"/>
<path d="M49.1036 9.76847C49.821 10.4035 48.6487 9.82937 48.6487 9.82937C46.453 8.82022 44.1347 8.44613 41.7377 8.65492C39.2445 8.87241 36.9612 9.74237 34.9666 11.2648C32.5696 13.1004 30.9774 15.4841 30.2688 18.4159C29.3415 22.2437 30.0851 25.7409 32.4034 28.925C32.8933 29.5948 33.5057 30.1603 34.1005 30.8302C33.4182 31.6914 32.937 32.5875 32.2459 33.3357C27.1457 28.925 25.3524 20.0688 30.5138 13.3701C35.4915 6.91501 44.2222 6.35823 49.1036 9.76847Z" fill="white"/>
<path d="M44.9134 15.7632C45.832 16.6767 44.511 16.059 44.2048 16.0242C42.7526 15.8589 41.3529 15.9372 40.0057 16.6767C37.565 18.0164 36.3402 21.3832 37.9061 24.054C38.0461 24.2888 38.2036 24.515 38.3785 24.7934C37.8187 25.5851 37.2325 26.4028 36.6027 27.2902C34.2407 24.5585 34.0045 20.2783 36.7951 17.2509C38.9909 14.8759 42.7614 14.3278 44.9134 15.7632Z" fill="white"/>
<path d="M50.6606 6.45269C51.4392 7.21825 50.3019 6.56578 50.1182 6.47879C47.4675 5.27824 44.6768 4.75627 41.7724 4.96506C38.3869 5.20864 35.3075 6.35699 32.6306 8.43619C29.595 10.7938 27.5654 13.8386 26.6906 17.5795C25.4833 22.7557 26.5331 27.4448 29.8836 31.6119C30.5048 32.3775 31.2134 33.056 31.992 33.7781C31.3271 34.6915 30.7235 35.5267 30.1111 36.3706C23.305 30.6375 21.153 19.3542 27.6878 11.0374C34.0128 2.99025 44.6331 2.52917 50.6606 6.45269Z" fill="white"/>
<path d="M13.5334 14.0864C15.0644 16.3048 16.5865 18.5319 18.135 20.7329C18.4499 21.1766 18.6161 21.6116 18.5899 22.177C18.5111 23.9257 18.7211 25.6482 19.0623 27.362C19.001 27.3881 18.9486 27.4229 18.8873 27.449C12.6411 18.4188 6.37742 9.38864 0 0.184481C1.29473 0.184481 2.40575 0.20188 3.50802 0.175781" fill="white"/>
<path d="M19.6398 8.54389C20.2172 9.37905 20.7858 10.2055 21.4157 11.119C20.8296 12.2151 20.3747 13.3548 19.8498 14.651C16.508 9.80533 13.2362 5.06406 9.85938 0.183594C11.2153 0.183594 12.4051 0.183594 13.5948 0.183594" fill="white"/>
<path d="M23.8301 7.46408C22.7103 8.93431 22.5441 9.31709 21.853 10.3175C19.5347 6.95951 17.2515 3.65366 14.8457 0.182528C16.1667 0.182528 17.3127 0.208626 18.45 0.173828" fill="white"/>
<path d="M23.891 0.320312C24.4246 1.05108 24.8445 1.55566 25.2994 2.20812C25.7981 2.93019 26.2967 3.66096 26.7866 4.38302C25.8856 5.05289 25.2032 5.87066 24.3634 6.64492C22.9637 4.61791 21.494 2.50391 19.998 0.329012" fill="white"/>
<path d="M15.7902 10.2649C16.9187 11.9004 18.0385 13.5534 19.1845 15.1802C19.4382 15.5369 19.5257 15.8153 19.3944 16.2589C19.0445 17.4769 18.7733 18.7296 18.5284 20.0346C13.9968 13.4751 9.46527 6.90687 4.85498 0.234287C6.1847 0.112493 7.4007 0.190789 8.60795 0.190789" fill="white"/>
<path d="M56.8345 14.3743L61.6175 25.6259H63.3663L68.1704 14.3743H66.4215L62.5024 23.8139L58.6465 14.3743H56.8345Z" fill="white"/>
<path d="M80.0631 20.5058C80.0842 20.4005 80.0842 20.2108 80.0842 19.958C80.0842 18.2513 79.6206 16.8817 78.6935 15.8071C77.7664 14.7325 76.4601 14.1847 74.7744 14.1847C73.2363 14.1847 71.9299 14.7536 70.8764 15.9125C69.8229 17.0713 69.2961 18.4198 69.2961 19.979C69.2961 21.6015 69.844 22.9921 70.9396 24.1299C72.0353 25.2467 73.3838 25.8156 75.0062 25.8156C77.029 25.8156 78.82 24.762 79.7681 22.9078L78.546 22.1072C77.8929 23.4557 76.5654 24.3617 74.9851 24.3617C73.8895 24.3617 72.9624 24.0035 72.2039 23.266C71.4453 22.5286 71.0239 21.6015 70.9607 20.5058H80.0631ZM70.9818 19.1152C71.1293 18.1459 71.5507 17.3242 72.2671 16.6499C72.9835 15.9546 73.8263 15.6175 74.7744 15.6175C76.8815 15.6175 78.1878 17.0081 78.4196 19.1152H70.9818Z" fill="white"/>
<path d="M90.3754 22.4232C90.3754 21.7279 90.1015 21.0958 89.5748 20.569C88.9637 19.9369 87.9734 19.4734 86.6249 19.1784C84.5389 18.7359 83.9911 18.3356 83.9911 17.4085C83.9911 16.9238 84.2229 16.5235 84.6653 16.1653C85.1078 15.8071 85.6557 15.6385 86.2667 15.6385C87.4256 15.6385 88.3105 16.2707 88.9005 17.5349L90.249 16.7974C89.4905 15.0486 88.163 14.1847 86.2667 14.1847C85.2553 14.1847 84.3493 14.5007 83.5486 15.1329C82.7479 15.765 82.3476 16.5656 82.3476 17.5349C82.3476 18.1881 82.5583 18.7359 82.9586 19.2205C83.5697 19.9158 84.3493 20.274 85.8874 20.6112C87.9313 21.0958 88.7109 21.5804 88.7109 22.5286C88.7109 23.6453 87.5941 24.3617 86.3088 24.3617C84.9814 24.3617 83.97 23.6242 83.2747 22.1704L81.9262 22.9078C82.7901 24.8463 84.265 25.8156 86.3299 25.8156C87.4888 25.8156 88.458 25.4995 89.2166 24.8674C89.9962 24.2142 90.3754 23.4135 90.3754 22.4232Z" fill="white"/>
<path d="M92.9073 10.3499C92.9073 11.0241 93.4552 11.572 94.1294 11.572C94.8247 11.572 95.3726 11.0241 95.3726 10.3499C95.3726 9.65455 94.8247 9.10672 94.1294 9.10672C93.4552 9.10672 92.9073 9.65455 92.9073 10.3499ZM94.9722 14.3743H93.3077V25.6259H94.9722V14.3743Z" fill="white"/>
<path d="M99.542 19.9369C99.542 18.7359 99.9213 17.7245 100.68 16.9028C101.459 16.06 102.429 15.6385 103.609 15.6385C105.463 15.6385 106.622 16.6921 107.127 18.1038L108.56 17.4717C107.907 15.5964 106.137 14.1847 103.609 14.1847C102.007 14.1847 100.638 14.7536 99.521 15.8703C98.4042 16.9871 97.8564 18.3777 97.8564 20.0001C97.8564 21.6647 98.4042 23.0553 99.4999 24.1721C100.617 25.2677 101.965 25.8156 103.588 25.8156C106.137 25.8156 107.907 24.4038 108.602 22.4654L107.17 21.8332C106.516 23.5189 105.315 24.3617 103.609 24.3617C102.408 24.3617 101.438 23.9192 100.68 23.0553C99.9213 22.1914 99.542 21.1379 99.542 19.9369Z" fill="white"/>
<path d="M114.978 19.1362C113.798 19.1362 112.766 19.4101 111.86 19.9369C110.975 20.4637 110.533 21.2643 110.533 22.3811V22.5075C110.533 23.4557 110.87 24.2563 111.565 24.8885C112.26 25.4995 113.187 25.8156 114.304 25.8156C115.906 25.8156 117.17 25.0992 118.097 23.6453H118.118V25.6259H119.719V18.3566C119.719 17.6613 119.614 17.0503 119.382 16.5024C118.708 14.9643 117.338 14.1847 115.273 14.1847C113.04 14.1847 111.502 15.1539 110.659 17.0924L112.007 17.8509C112.703 16.376 113.777 15.6385 115.231 15.6385C117.149 15.6385 118.097 16.5446 118.097 18.3777V19.1362H114.978ZM118.097 20.8851C118.097 21.9175 117.76 22.7393 117.107 23.3925C116.453 24.0456 115.611 24.3617 114.599 24.3617C113.187 24.3617 112.176 23.6242 112.176 22.3811C112.239 20.9061 113.672 20.4637 114.957 20.4847H118.097V20.8851Z" fill="white"/>
<path d="M130.747 22.4232C130.747 21.7279 130.473 21.0958 129.946 20.569C129.335 19.9369 128.345 19.4734 126.996 19.1784C124.91 18.7359 124.362 18.3356 124.362 17.4085C124.362 16.9238 124.594 16.5235 125.037 16.1653C125.479 15.8071 126.027 15.6385 126.638 15.6385C127.797 15.6385 128.682 16.2707 129.272 17.5349L130.62 16.7974C129.862 15.0486 128.534 14.1847 126.638 14.1847C125.627 14.1847 124.721 14.5007 123.92 15.1329C123.119 15.765 122.719 16.5656 122.719 17.5349C122.719 18.1881 122.93 18.7359 123.33 19.2205C123.941 19.9158 124.721 20.274 126.259 20.6112C128.302 21.0958 129.082 21.5804 129.082 22.5286C129.082 23.6453 127.965 24.3617 126.68 24.3617C125.353 24.3617 124.341 23.6242 123.646 22.1704L122.297 22.9078C123.161 24.8463 124.636 25.8156 126.701 25.8156C127.86 25.8156 128.829 25.4995 129.588 24.8674C130.367 24.2142 130.747 23.4135 130.747 22.4232Z" fill="white"/>
<path d="M143.434 25.6259V18.6727C143.434 15.9757 141.875 14.1636 139.178 14.1636C137.514 14.1636 136.228 14.9011 135.322 16.3971V8.47461H133.679V25.6259H135.322V19.2205C135.322 18.2091 135.638 17.3663 136.271 16.6921C136.903 15.9967 137.703 15.6596 138.673 15.6596C140.695 15.6596 141.791 16.9871 141.791 19.073V25.6259H143.434Z" fill="white"/>
</svg>
