<svg width="173" height="72" viewBox="0 0 173 72" fill="none" xmlns="http://www.w3.org/2000/svg">
<path d="M60.2854 25.6946C54.4262 23.9307 49.4838 25.0108 46.2653 30.5005C44.1528 34.0876 44.6012 39.0818 48.0888 42.5996C47.4112 43.541 46.7336 44.5021 46.0461 45.4633C43.2062 43.105 41.313 37.8234 42.698 33.0372C44.2525 27.6665 48.6568 24.3965 53.3301 23.9704C56.6682 23.6632 59.827 24.5451 60.2854 25.6946Z" fill="#043B56"/>
<path d="M66.1944 14.5567C66.0648 14.6657 66.0648 14.6459 65.9552 14.6359C65.7161 14.5963 65.5267 14.5071 65.3673 14.4378C62.1587 12.991 58.7608 12.2478 55.2633 12.4163C46.5045 12.8325 39.7685 16.7367 35.3542 24.3767C33.3812 27.7854 32.4545 31.4914 32.4844 35.3659C32.5243 40.6376 33.9492 45.6516 37.3272 49.7838C38.2838 50.953 39.33 52.1818 40.5357 53.1628C39.7485 54.4312 39.1507 55.1446 38.1542 56.4923C35.962 52.8358 33.1122 49.8828 31.5876 46.0678C29.9933 42.0744 29.4054 37.972 29.8837 33.6814C30.4018 28.9448 32.1157 24.7235 35.0553 20.9976C38.8019 16.2412 43.6447 13.1793 49.6234 11.9506C51.417 11.5839 53.2206 11.3263 55.0441 11.3857C58.6811 11.5146 62.1886 12.2677 65.457 13.9225C65.746 14.0711 66.1944 14.408 66.1944 14.5567Z" fill="#043B56"/>
<path d="M62.7466 22.0578C63.5637 22.7812 62.2285 22.1272 62.2285 22.1272C59.7274 20.9777 57.0868 20.5516 54.3565 20.7895C51.5166 21.0372 48.9159 22.0281 46.644 23.7622C43.9137 25.853 42.1002 28.5682 41.293 31.9075C40.2368 36.2676 41.0838 40.2511 43.7244 43.8778C44.2824 44.6408 44.9799 45.2849 45.6575 46.0479C44.8803 47.0289 44.3322 48.0496 43.545 48.9018C37.7357 43.8778 35.693 33.7903 41.5721 26.1602C47.2419 18.8076 57.1864 18.1734 62.7466 22.0578Z" fill="#043B56"/>
<path d="M57.9736 28.8853C59.0199 29.9258 57.5152 29.2222 57.1665 29.1826C55.5124 28.9943 53.918 29.0835 52.3835 29.9258C49.6034 31.4518 48.2084 35.2866 49.992 38.3288C50.1514 38.5963 50.3308 38.8539 50.5301 39.171C49.8924 40.0728 49.2247 41.0042 48.5073 42.015C45.8169 38.9035 45.5478 34.0282 48.7265 30.5798C51.2276 27.8746 55.5223 27.2503 57.9736 28.8853Z" fill="#043B56"/>
<path d="M64.5202 18.2825C65.4071 19.1545 64.1117 18.4113 63.9024 18.3122C60.8832 16.9447 57.7045 16.3502 54.3963 16.588C50.54 16.8655 47.0325 18.1735 43.9834 20.5418C40.5257 23.2271 38.2139 26.6953 37.2175 30.9563C35.8424 36.8522 37.0381 42.1933 40.8545 46.9398C41.562 47.8118 42.3691 48.5847 43.256 49.4072C42.4987 50.4476 41.8111 51.3989 41.1136 52.3601C33.3612 45.8299 30.9099 32.9778 38.3534 23.5046C45.5578 14.3386 57.6547 13.8134 64.5202 18.2825Z" fill="#043B56"/>
<path d="M22.2309 26.9739C23.9747 29.5007 25.7085 32.0375 27.4722 34.5445C27.831 35.0499 28.0203 35.5453 27.9904 36.1894C27.9007 38.1812 28.1399 40.1432 28.5285 42.0953C28.4587 42.125 28.3989 42.1647 28.3292 42.1944C21.2145 31.9087 14.0799 21.623 6.8158 11.1391C8.29054 11.1391 9.55604 11.1589 10.8116 11.1292" fill="#3BB75E"/>
<path d="M29.1862 20.6606C29.8438 21.6119 30.4915 22.5533 31.209 23.5938C30.5413 24.8423 30.0232 26.1404 29.4253 27.6169C25.6189 22.0975 21.8921 16.697 18.0458 11.1379C19.5903 11.1379 20.9455 11.1379 22.3007 11.1379" fill="#3BB75E"/>
<path d="M33.9591 19.4318C32.6837 21.1065 32.4944 21.5425 31.7072 22.682C29.0666 18.8571 26.4658 15.0916 23.7256 11.1378C25.2302 11.1378 26.5356 11.1676 27.831 11.1279" fill="#3BB75E"/>
<path d="M34.0288 11.2964C34.6367 12.1288 35.115 12.7035 35.6331 13.4467C36.2011 14.2691 36.7691 15.1015 37.3271 15.924C36.3008 16.687 35.5235 17.6184 34.5669 18.5004C32.9726 16.1915 31.2986 13.7836 29.5946 11.3063" fill="#3BB75E"/>
<path d="M24.8018 22.6227C26.0872 24.4856 27.3626 26.3683 28.668 28.2213C28.957 28.6276 29.0566 28.9447 28.9071 29.4501C28.5086 30.8374 28.1997 32.2643 27.9207 33.7507C22.759 26.2791 17.5974 18.7977 12.3461 11.1974C13.8607 11.0587 15.2458 11.1478 16.6209 11.1478" fill="#3BB75E"/>
<path d="M71.552 26.184L77 39H78.992L84.464 26.184H82.472L78.008 36.936L73.616 26.184H71.552ZM98.0103 33.168C98.0343 33.048 98.0343 32.832 98.0343 32.544C98.0343 30.6 97.5063 29.04 96.4503 27.816C95.3943 26.592 93.9063 25.968 91.9863 25.968C90.2343 25.968 88.7463 26.616 87.5463 27.936C86.3463 29.256 85.7463 30.792 85.7463 32.568C85.7463 34.416 86.3703 36 87.6183 37.296C88.8663 38.568 90.4023 39.216 92.2503 39.216C94.5543 39.216 96.5943 38.016 97.6743 35.904L96.2823 34.992C95.5383 36.528 94.0263 37.56 92.2263 37.56C90.9783 37.56 89.9223 37.152 89.0583 36.312C88.1943 35.472 87.7143 34.416 87.6423 33.168H98.0103ZM87.6663 31.584C87.8343 30.48 88.3143 29.544 89.1303 28.776C89.9463 27.984 90.9063 27.6 91.9863 27.6C94.3863 27.6 95.8743 29.184 96.1383 31.584H87.6663ZM109.756 35.352C109.756 34.56 109.444 33.84 108.844 33.24C108.148 32.52 107.02 31.992 105.484 31.656C103.108 31.152 102.484 30.696 102.484 29.64C102.484 29.088 102.748 28.632 103.252 28.224C103.756 27.816 104.38 27.624 105.076 27.624C106.396 27.624 107.404 28.344 108.076 29.784L109.612 28.944C108.748 26.952 107.236 25.968 105.076 25.968C103.924 25.968 102.892 26.328 101.98 27.048C101.068 27.768 100.612 28.68 100.612 29.784C100.612 30.528 100.852 31.152 101.308 31.704C102.004 32.496 102.892 32.904 104.644 33.288C106.972 33.84 107.86 34.392 107.86 35.472C107.86 36.744 106.588 37.56 105.124 37.56C103.612 37.56 102.46 36.72 101.668 35.064L100.132 35.904C101.116 38.112 102.796 39.216 105.148 39.216C106.468 39.216 107.572 38.856 108.436 38.136C109.324 37.392 109.756 36.48 109.756 35.352ZM112.64 21.6C112.64 22.368 113.264 22.992 114.032 22.992C114.824 22.992 115.448 22.368 115.448 21.6C115.448 20.808 114.824 20.184 114.032 20.184C113.264 20.184 112.64 20.808 112.64 21.6ZM114.992 26.184H113.096V39H114.992V26.184ZM120.198 32.52C120.198 31.152 120.63 30 121.494 29.064C122.382 28.104 123.486 27.624 124.83 27.624C126.942 27.624 128.262 28.824 128.838 30.432L130.47 29.712C129.726 27.576 127.71 25.968 124.83 25.968C123.006 25.968 121.446 26.616 120.174 27.888C118.902 29.16 118.278 30.744 118.278 32.592C118.278 34.488 118.902 36.072 120.15 37.344C121.422 38.592 122.958 39.216 124.806 39.216C127.71 39.216 129.726 37.608 130.518 35.4L128.886 34.68C128.142 36.6 126.774 37.56 124.83 37.56C123.462 37.56 122.358 37.056 121.494 36.072C120.63 35.088 120.198 33.888 120.198 32.52ZM137.78 31.608C136.436 31.608 135.26 31.92 134.228 32.52C133.22 33.12 132.716 34.032 132.716 35.304V35.448C132.716 36.528 133.1 37.44 133.892 38.16C134.684 38.856 135.74 39.216 137.012 39.216C138.836 39.216 140.276 38.4 141.332 36.744H141.356V39H143.18V30.72C143.18 29.928 143.06 29.232 142.796 28.608C142.028 26.856 140.468 25.968 138.116 25.968C135.572 25.968 133.82 27.072 132.86 29.28L134.396 30.144C135.188 28.464 136.412 27.624 138.068 27.624C140.252 27.624 141.332 28.656 141.332 30.744V31.608H137.78ZM141.332 33.6C141.332 34.776 140.948 35.712 140.204 36.456C139.46 37.2 138.5 37.56 137.348 37.56C135.74 37.56 134.588 36.72 134.588 35.304C134.66 33.624 136.292 33.12 137.756 33.144H141.332V33.6ZM155.741 35.352C155.741 34.56 155.429 33.84 154.829 33.24C154.133 32.52 153.005 31.992 151.469 31.656C149.093 31.152 148.469 30.696 148.469 29.64C148.469 29.088 148.733 28.632 149.237 28.224C149.741 27.816 150.365 27.624 151.061 27.624C152.381 27.624 153.389 28.344 154.061 29.784L155.597 28.944C154.733 26.952 153.221 25.968 151.061 25.968C149.909 25.968 148.877 26.328 147.965 27.048C147.053 27.768 146.597 28.68 146.597 29.784C146.597 30.528 146.837 31.152 147.293 31.704C147.989 32.496 148.877 32.904 150.629 33.288C152.957 33.84 153.845 34.392 153.845 35.472C153.845 36.744 152.573 37.56 151.109 37.56C149.597 37.56 148.445 36.72 147.653 35.064L146.117 35.904C147.101 38.112 148.781 39.216 151.133 39.216C152.453 39.216 153.557 38.856 154.421 38.136C155.309 37.392 155.741 36.48 155.741 35.352ZM170.193 39V31.08C170.193 28.008 168.417 25.944 165.345 25.944C163.449 25.944 161.985 26.784 160.953 28.488V19.464H159.081V39H160.953V31.704C160.953 30.552 161.313 29.592 162.033 28.824C162.753 28.032 163.665 27.648 164.769 27.648C167.073 27.648 168.321 29.16 168.321 31.536V39H170.193Z" fill="#043B56"/>
</svg>
