<svg width="1300" height="295" viewBox="0 0 1300 295" fill="none" xmlns="http://www.w3.org/2000/svg">
<path d="M520.885 100.264L508.005 93.7283L470.326 168.894L432.647 93.7283L419.767 100.264L470.326 200.806L520.885 100.264ZM637.755 131.792L637.563 130.831C635.064 122.949 630.835 115.836 624.875 109.876C616.609 101.61 606.036 96.6119 594.501 95.2662H593.732C592.194 95.074 590.657 94.8818 588.926 94.8818C575.277 94.8818 562.59 100.264 552.978 109.876C543.366 119.488 538.175 132.176 538.175 145.825C538.175 159.282 543.366 171.97 552.978 181.582C562.59 191.194 575.277 196.384 588.734 196.577H589.503C595.078 196.384 600.845 195.423 606.228 193.309C619.108 188.695 629.105 179.275 634.872 166.972C635.833 164.665 636.794 162.358 637.563 160.051L623.53 156.206C621.607 162.742 617.762 168.51 612.764 172.931C609.304 175.815 605.459 178.122 601.23 179.852C583.736 186.196 564.32 178.314 556.246 161.781L555.861 161.012C556.053 161.205 556.246 161.397 556.246 161.781L615.456 139.866L623.53 136.982L636.217 132.369L637.755 131.792ZM552.593 147.363V148.132L552.401 147.363C551.824 131.984 561.052 117.374 576.046 111.799C582.775 109.3 589.695 108.915 596.232 110.261C604.69 112.183 612.187 116.797 617.378 123.526L552.593 147.363ZM740.161 153.515C737.662 149.67 734.009 146.402 729.395 144.095C721.706 139.866 712.094 138.136 702.866 136.406C695.369 135.06 688.256 133.714 683.45 131.407C679.99 129.869 678.067 127.947 678.067 124.102V123.718C678.067 117.951 683.065 115.644 684.796 114.682C689.602 111.799 696.714 110.261 704.02 110.261C711.325 110.261 718.245 111.799 722.859 114.682C724.589 115.644 728.242 118.527 729.587 124.487L743.621 120.642C742.468 113.145 737.662 106.608 730.164 102.187C723.051 98.1498 713.824 96.0352 704.02 96.0352C694.023 96.0352 684.796 98.1498 677.683 102.187C669.993 106.608 664.61 115.067 664.61 123.91C664.61 128.908 665.764 133.138 668.455 136.79C670.762 139.866 672.877 142.365 677.106 144.287C683.642 147.556 692.101 149.093 700.367 150.631C720.744 154.284 730.356 157.36 730.356 168.894C729.972 174.277 725.358 176.968 723.628 177.929C718.822 180.621 711.709 182.159 704.404 182.159C697.291 182.159 690.371 180.621 685.565 177.929C683.834 176.968 680.182 174.469 678.452 168.125L664.803 171.778C665.956 179.275 670.57 185.811 678.452 190.233C685.372 194.27 694.6 196.577 704.404 196.577C714.401 196.577 723.628 194.27 730.741 190.233C739.776 185.235 744.582 177.545 744.582 168.51V168.317C744.582 162.55 743.044 157.552 740.161 153.515ZM776.143 192.347L776.335 196.769L790.368 193.693V107.185L776.143 103.917V192.347ZM793.444 65.0845C793.444 59.7018 789.023 55.2803 783.448 55.2803C777.873 55.2803 773.451 59.7018 773.451 65.0845C773.451 70.6595 777.873 75.081 783.448 75.081C789.023 75.081 793.444 70.6595 793.444 65.0845Z" fill="#3BB75E"/>
<path d="M905.163 156.206C900.741 171.009 886.9 181.774 870.752 181.774C850.951 181.774 834.803 165.626 834.803 145.825C834.803 126.025 850.951 109.876 870.752 109.876C886.708 109.876 900.357 120.45 904.97 134.868L919.004 131.023C916.697 123.333 912.468 116.028 906.508 110.069C896.896 100.649 884.209 95.2662 870.752 95.2662C857.295 95.2662 844.607 100.649 835.187 110.069C825.575 119.681 820.385 132.369 820.385 145.825C820.385 159.282 825.575 171.97 835.187 181.39C844.607 191.002 857.295 196.192 870.752 196.192C884.209 196.192 896.896 191.002 906.508 181.39C912.468 175.43 916.889 168.125 919.196 160.051L905.163 156.206ZM1034.05 96.6119V113.145L1031.16 109.876C1021.55 100.264 1008.67 95.074 995.215 95.074C981.566 95.074 968.878 100.264 959.266 109.876C949.654 119.488 944.464 132.176 944.464 145.825C944.464 159.282 949.654 172.162 959.266 181.774C968.878 191.194 981.566 196.577 995.215 196.577C1008.67 196.577 1021.55 191.194 1031.16 181.774L1034.05 178.506V197.73L1048.66 195.808V100.457L1034.05 96.6119ZM995.215 181.966C975.222 181.966 959.074 165.626 959.074 145.825C959.074 125.832 975.222 109.684 995.215 109.684C1015.02 109.684 1031.36 125.832 1031.36 145.825C1031.36 165.626 1015.02 181.966 995.215 181.966ZM1158.62 153.515C1156.12 149.67 1152.47 146.402 1147.86 144.095C1140.17 139.866 1130.55 138.136 1121.33 136.406C1113.83 135.06 1106.72 133.714 1101.91 131.407C1098.45 129.869 1096.53 127.947 1096.53 124.102V123.718C1096.53 117.951 1101.53 115.644 1103.26 114.682C1108.06 111.799 1115.17 110.261 1122.48 110.261C1129.78 110.261 1136.71 111.799 1141.32 114.682C1143.05 115.644 1146.7 118.527 1148.05 124.487L1162.08 120.642C1160.93 113.145 1156.12 106.608 1148.62 102.187C1141.51 98.1498 1132.28 96.0352 1122.48 96.0352C1112.48 96.0352 1103.26 98.1498 1096.14 102.187C1088.45 106.608 1083.07 115.067 1083.07 123.91C1083.07 128.908 1084.22 133.138 1086.92 136.79C1089.22 139.866 1091.34 142.365 1095.57 144.287C1102.1 147.556 1110.56 149.093 1118.83 150.631C1139.2 154.284 1148.82 157.36 1148.82 168.894C1148.43 174.277 1143.82 176.968 1142.09 177.929C1137.28 180.621 1130.17 182.159 1122.86 182.159C1115.75 182.159 1108.83 180.621 1104.02 177.929C1102.29 176.968 1098.64 174.469 1096.91 168.125L1083.26 171.778C1084.42 179.275 1089.03 185.811 1096.91 190.233C1103.83 194.27 1113.06 196.577 1122.86 196.577C1132.86 196.577 1142.09 194.27 1149.2 190.233C1158.24 185.235 1163.04 177.545 1163.04 168.51V168.317C1163.04 162.55 1161.5 157.552 1158.62 153.515ZM1206.91 144.864C1207.67 125.448 1219.79 111.799 1239.39 111.799C1258.81 111.799 1270.92 125.64 1271.69 144.864V198.115L1286.69 196.192V146.402C1286.69 132.753 1281.5 119.873 1271.88 110.261C1262.08 100.649 1253.04 96.9964 1239.39 96.9964C1224.21 96.9964 1207.67 108.531 1206.91 109.3V52.0122L1191.91 55.857V196.192L1206.91 198.115V144.864Z" fill="#043B56"/>
<path d="M346 94.6488C307.997 83.1983 276.021 90.2448 255.128 125.838C241.446 149.162 244.319 181.593 266.971 204.397L253.714 223C235.33 207.683 223.028 173.375 231.999 142.3C242.074 107.447 270.603 86.1666 300.935 83.3921C322.562 81.4103 343.03 87.2148 346 94.6488Z" fill="#043B56"/>
<path d="M384 22.6342C383.179 23.3476 383.179 23.2243 382.473 23.1186C381.142 22.876 379.853 22.4461 378.643 21.8416C357.85 12.4181 335.963 7.59184 313.264 8.69272C256.552 11.4229 213.007 36.7255 184.412 86.3618C171.907 108.063 165.504 132.73 165.879 157.76C166.161 191.984 175.331 224.553 197.2 251.414C203.378 259.015 210.139 266.976 217.958 273.379C212.848 281.631 209.009 286.237 202.575 295C188.366 271.221 169.921 252.057 160.081 227.309C149.772 201.814 145.972 174.163 149.022 146.84C152.083 116.764 163.687 88.1856 182.471 64.4676C206.714 33.5637 238.001 13.7215 276.735 5.71595C288.306 3.31163 300.035 1.65592 311.825 2.06104C335.381 2.87128 358.071 7.81202 379.243 18.5478C381.096 19.4901 384 21.7271 384 22.6342Z" fill="#043B56"/>
<path d="M361.292 71.2705C366.57 75.9853 357.932 71.7296 357.932 71.7296C342.062 64.3677 324.529 61.3666 307.125 63.0329C289.024 64.511 271.741 71.2345 257.375 82.3865C239.738 96.0099 228.066 113.659 222.859 135.362C216.059 163.721 221.522 189.687 238.533 213.279C242.122 218.259 246.617 222.408 251.024 227.406C246.028 233.816 242.483 240.464 237.425 246C199.989 213.332 186.803 147.696 224.732 97.9964C261.263 50.1688 325.421 46.0455 361.292 71.2705Z" fill="#043B56"/>
<path d="M330.654 115.846C337.391 122.58 327.705 118.035 325.442 117.789C314.734 116.602 304.441 117.156 294.526 122.597C276.571 132.469 267.581 157.346 279.107 177.055C280.129 178.813 281.265 180.483 282.577 182.54L269.509 201C260.553 190.642 255.745 177.346 256.01 163.665C256.275 149.984 261.594 136.883 270.945 126.878C287.138 109.218 314.84 105.201 330.654 115.846Z" fill="#043B56"/>
<path d="M373.007 46.7708C378.761 52.4499 370.363 47.6513 369.006 46.9821C349.846 38.0618 328.718 34.1968 307.639 35.756C282.718 37.5962 260.053 46.0488 240.323 61.4572C217.993 78.8907 203.031 101.413 196.615 129.06C187.715 167.326 195.487 202.017 220.144 232.834C224.691 238.522 229.925 243.487 235.644 248.841C230.762 255.629 226.286 261.793 221.791 268C171.677 225.631 155.895 142.18 203.973 80.6692C250.501 21.1489 328.7 17.715 373.007 46.7708Z" fill="#043B56"/>
<path d="M100.056 103.023C111.382 119.44 122.638 135.91 134.08 152.247C136.429 155.301 137.626 159.08 137.46 162.924C136.885 175.85 138.443 188.643 141 201.339L139.708 202C93.4101 135.108 47.1386 68.215 0 0.0705338C9.56577 0.0705338 17.7511 0.211601 25.9276 0" fill="#3BB75E"/>
<path d="M144.91 61.8347L158 80.8994C153.66 89.0272 150.368 97.4104 146.46 107C121.864 71.169 97.8063 36.1216 73 0C82.9824 0 91.7324 0 100.474 0" fill="#3BB75E"/>
<path d="M175 53.8881C166.754 64.7343 165.575 67.5844 160.489 75L109 0.0791696C118.742 0.0791696 127.119 0.255102 135.47 0" fill="#3BB75E"/>
<path d="M175.7 1C179.629 6.42954 182.747 10.1878 186.05 15.0248C189.741 20.4013 193.371 25.822 197 31.1985C190.358 36.1505 185.31 42.2256 179.171 48L147 1.11496" fill="#3BB75E"/>
<path d="M116.123 74.6413C124.415 86.7819 132.602 98.9929 141.026 111.028C142.851 113.671 143.518 115.697 142.57 119.036C140.026 128.084 138.008 137.291 136.2 147L36 0.502967C45.7313 -0.378059 54.6465 0.168178 63.5267 0.159367" fill="#3BB75E"/>
</svg>
